<?xml version="1.0" encoding="UTF-8" standalone="no"?>
<!-- Generator: Adobe Illustrator 18.1.1, SVG Export Plug-In . SVG Version: 6.00 Build 0)  -->

<svg
   xmlns:dc="http://purl.org/dc/elements/1.1/"
   xmlns:cc="http://creativecommons.org/ns#"
   xmlns:rdf="http://www.w3.org/1999/02/22-rdf-syntax-ns#"
   xmlns:svg="http://www.w3.org/2000/svg"
   xmlns="http://www.w3.org/2000/svg"
   xmlns:sodipodi="http://sodipodi.sourceforge.net/DTD/sodipodi-0.dtd"
   xmlns:inkscape="http://www.inkscape.org/namespaces/inkscape"
   version="1.1"
   id="Capa_1"
   x="0px"
   y="0px"
   viewBox="0 0 128 128"
   xml:space="preserve"
   inkscape:version="0.92.1 r"
   sodipodi:docname="apply.svg"
   width="128"
   height="128"><metadata
     id="metadata73"><rdf:RDF><cc:Work
         rdf:about=""><dc:format>image/svg+xml</dc:format><dc:type
           rdf:resource="http://purl.org/dc/dcmitype/StillImage" /><dc:title /></cc:Work></rdf:RDF></metadata><defs
     id="defs71" /><sodipodi:namedview
     pagecolor="#ffffff"
     bordercolor="#666666"
     borderopacity="1"
     objecttolerance="10"
     gridtolerance="10"
     guidetolerance="10"
     inkscape:pageopacity="0"
     inkscape:pageshadow="2"
     inkscape:window-width="1920"
     inkscape:window-height="938"
     id="namedview69"
     showgrid="false"
     inkscape:zoom="3.0957075"
     inkscape:cx="-67.22216"
     inkscape:cy="47.27543"
     inkscape:window-x="0"
     inkscape:window-y="0"
     inkscape:window-maximized="1"
     inkscape:current-layer="Capa_1" /><g
     id="g4548"><path
       style="fill:#394050;fill-opacity:1;stroke-width:4.7490077"
       d="m 1.0115386,28.846177 h 7.9688346 c 0.5746299,0 1.0305348,-0.465402 1.0305348,-1.054279 0.019,-6.387415 5.07194,-11.597077 11.288391,-11.606575 0.57463,0 1.030534,-0.465402 1.030534,-1.054279 V 6.9437547 C 22.325084,6.3596268 21.86918,5.884726 21.29455,5.884726 9.5550031,5.884726 0,15.719921 0,27.791898 c 0,0.588877 0.44640671,1.054279 1.0115386,1.054279 z"
       id="path5"
       inkscape:connector-curvature="0" /><path
       style="fill:#394050;fill-opacity:1;stroke-width:4.7490077"
       d="m 1.0115386,51.888362 h 7.9688346 c 0.5746299,0 1.0305348,-0.465403 1.0305348,-1.049531 V 34.074835 c 0,-0.57463 -0.4559049,-1.05428 -1.0305348,-1.05428 H 1.0115386 C 0.44640671,33.020555 0,33.495456 0,34.074835 v 16.763996 c 0,0.584128 0.44640671,1.049531 1.0115386,1.049531 z"
       id="path7"
       inkscape:connector-curvature="0" /><path
       style="fill:#394050;fill-opacity:1;stroke-width:4.7490077"
       d="m 1.0115386,73.757541 h 7.9688346 c 0.5746299,0 1.0305348,-0.460653 1.0305348,-1.04953 V 55.948763 c 0,-0.57463 -0.4559049,-1.059029 -1.0305348,-1.059029 H 1.0115386 C 0.44640671,54.889734 0,55.374133 0,55.948763 v 16.759248 c 0,0.588877 0.44640671,1.04953 1.0115386,1.04953 z"
       id="path9"
       inkscape:connector-curvature="0" /><path
       style="fill:#394050;fill-opacity:1;stroke-width:4.7490077"
       d="m 1.0115386,96.087375 h 7.9688346 c 0.5746299,0 1.0305348,-0.455905 1.0305348,-1.049531 V 78.292843 c 0,-0.565131 -0.4559049,-1.04953 -1.0305348,-1.04953 H 1.0115386 C 0.44640671,77.243313 0,77.727712 0,78.292843 v 16.745001 c 0,0.593626 0.44640671,1.049531 1.0115386,1.049531 z"
       id="path11"
       inkscape:connector-curvature="0" /><path
       style="fill:#394050;fill-opacity:1;stroke-width:4.7490077"
       d="m 113.11186,51.888362 c 0.56513,0 1.01154,-0.465403 1.01154,-1.049531 v -2.279524 l -3.59975,3.324306 h 2.58821 z"
       id="path13"
       inkscape:connector-curvature="0" /><path
       style="fill:#394050;fill-opacity:1;stroke-width:4.7490077"
       d="m 113.11186,54.889734 h -4.3216 l -4.67302,4.867733 v 12.950544 c 0,0.588877 0.4654,1.04953 1.02104,1.04953 h 7.97833 c 0.56513,0 1.01154,-0.460653 1.01154,-1.04953 V 55.948763 c -0.005,-0.57463 -0.44641,-1.059029 -1.01629,-1.059029 z"
       id="path15"
       inkscape:connector-curvature="0" /><path
       style="fill:#394050;fill-opacity:1;stroke-width:4.7490077"
       d="m 113.10236,77.243313 h -7.94984 c -0.57463,0 -1.03053,0.484399 -1.03053,1.04953 v 16.745001 c 0,0.593626 0.4559,1.049531 1.03053,1.049531 h 7.94984 c 0.56513,0 1.02104,-0.455905 1.02104,-1.049531 V 78.292843 c 0,-0.565131 -0.45116,-1.04953 -1.02104,-1.04953 z"
       id="path17"
       inkscape:connector-curvature="0" /><path
       style="fill:#394050;fill-opacity:1;stroke-width:4.7490077"
       d="M 86.484176,112.6994 H 70.185582 c -0.555634,0 -1.030535,0.4749 -1.030535,1.04953 v 8.19204 c 0,0.59363 0.474901,1.05903 1.030535,1.05903 h 16.298594 c 0.574629,0 1.030534,-0.4654 1.030534,-1.05903 v -8.19204 c 0,-0.57463 -0.455905,-1.04953 -1.030534,-1.04953 z"
       id="path19"
       inkscape:connector-curvature="0" /><path
       style="fill:#394050;fill-opacity:1;stroke-width:4.7490077"
       d="M 65.199124,112.6994 H 48.90053 c -0.555634,0 -1.021036,0.4749 -1.021036,1.04953 v 8.19204 c 0,0.59363 0.465402,1.05903 1.021036,1.05903 h 16.298594 c 0.57463,0 1.030535,-0.4654 1.030535,-1.05903 v -8.19204 c -0.0047,-0.57463 -0.455905,-1.04953 -1.030535,-1.04953 z"
       id="path21"
       inkscape:connector-curvature="0" /><path
       style="fill:#394050;fill-opacity:1;stroke-width:4.7490077"
       d="M 43.472415,112.6994 H 27.17857 c -0.555634,0 -1.021037,0.4749 -1.021037,1.04953 v 8.19204 c 0,0.59363 0.465403,1.05903 1.021037,1.05903 h 16.298594 c 0.584128,0 1.030534,-0.4654 1.030534,-1.05903 v -8.19204 c -0.0047,-0.57463 -0.451155,-1.04953 -1.035283,-1.04953 z"
       id="path23"
       inkscape:connector-curvature="0" /><path
       style="fill:#394050;fill-opacity:1;stroke-width:4.7490077"
       d="m 70.185582,16.185323 h 16.298594 c 0.574629,0 1.030534,-0.465402 1.030534,-1.054279 V 6.9437547 c 0,-0.5841279 -0.455905,-1.0590287 -1.030534,-1.0590287 H 70.185582 c -0.555634,0 -1.030535,0.4749008 -1.030535,1.0590287 v 8.1920383 c 0,0.584128 0.474901,1.04953 1.030535,1.04953 z"
       id="path25"
       inkscape:connector-curvature="0" /><path
       style="fill:#394050;fill-opacity:1;stroke-width:4.7490077"
       d="m 48.90053,16.185323 h 16.298594 c 0.57463,0 1.030535,-0.465402 1.030535,-1.054279 V 6.9437547 C 66.22491,6.3596268 65.773754,5.884726 65.199124,5.884726 H 48.90053 c -0.555634,0 -1.021036,0.4749008 -1.021036,1.0590287 v 8.1920383 c 0,0.584128 0.465402,1.04953 1.021036,1.04953 z"
       id="path27"
       inkscape:connector-curvature="0" /><path
       style="fill:#394050;fill-opacity:1;stroke-width:4.7490077"
       d="m 27.17857,16.185323 h 16.298594 c 0.584128,0 1.030534,-0.465402 1.030534,-1.054279 V 6.9437547 C 44.502949,6.3596268 44.056543,5.884726 43.472415,5.884726 H 27.17857 c -0.560383,0 -1.021037,0.4749008 -1.021037,1.0590287 v 8.1920383 c 0,0.584128 0.460654,1.04953 1.021037,1.04953 z"
       id="path29"
       inkscape:connector-curvature="0" /><path
       style="fill:#394050;fill-opacity:1;stroke-width:4.7490077"
       d="m 21.29455,112.44296 c -6.216451,-0.0285 -11.269395,-5.21441 -11.288391,-11.60183 0,-0.57463 -0.4559049,-1.040032 -1.0305348,-1.040032 H 1.0115386 C 0.44640671,99.796349 0,100.26175 0,100.83638 c 0,12.08623 9.5550031,21.89768 21.29455,21.89768 0.57463,0 1.030534,-0.46541 1.030534,-1.05903 v -8.17779 c 0,-0.57463 -0.455904,-1.05428 -1.030534,-1.05428 z"
       id="path31"
       inkscape:connector-curvature="0" /><path
       style="fill:#394050;fill-opacity:1;stroke-width:4.7490077"
       d="m 112.87441,99.796349 h -7.94984 c -0.57463,0 -1.03053,0.465401 -1.03053,1.040031 -0.019,6.39217 -5.081441,11.57808 -11.297892,11.60183 -0.555634,0 -1.021036,0.4844 -1.021036,1.05903 v 8.18254 c 0,0.59362 0.465402,1.05902 1.021036,1.05902 11.753792,0 21.294552,-9.81144 21.294552,-21.89767 0,-0.57938 -0.44166,-1.044781 -1.01629,-1.044781 z"
       id="path33"
       inkscape:connector-curvature="0" /><path
       style="fill:#394050;fill-opacity:1;stroke-width:4.7490077"
       d="m 92.596148,16.185323 c 6.168961,0.0095 7.047527,0.892814 10.229362,6.791081 l 7.57942,-7.123511 c -2.66895,-7.6981414 -8.98987,-9.968167 -17.808782,-9.968167 -0.555634,0 -1.021036,0.4749008 -1.021036,1.0590287 v 8.1920383 c 0,0.584128 0.465402,1.04953 1.021036,1.04953 z"
       id="path35"
       inkscape:connector-curvature="0" /><path
       style="fill:#394050;fill-opacity:1;stroke-width:4.7490077"
       d="m 126.80325,26.694877 -8.70018,-8.700182 c -1.59567,-1.595666 -4.19338,-1.595666 -5.78904,0 L 60.169925,70.143547 35.365859,45.163767 c -1.614663,-1.600415 -4.202872,-1.600415 -5.808036,0 l -8.685935,8.685935 c -1.605165,1.600415 -1.605165,4.202871 0,5.798538 l 27.586985,27.791192 0.09498,0.128223 6.002745,6.012244 1.400957,1.400957 v 0 l 1.286981,1.282232 c 1.595667,1.595666 4.193374,1.595666 5.798539,0 L 126.80325,32.493415 c 1.59567,-1.595666 1.59567,-4.207621 0,-5.798538 z"
       id="path37"
       inkscape:connector-curvature="0" /></g><g
     id="g39"
     transform="translate(0,101.047)" /><g
     id="g41"
     transform="translate(0,101.047)" /><g
     id="g43"
     transform="translate(0,101.047)" /><g
     id="g45"
     transform="translate(0,101.047)" /><g
     id="g47"
     transform="translate(0,101.047)" /><g
     id="g49"
     transform="translate(0,101.047)" /><g
     id="g51"
     transform="translate(0,101.047)" /><g
     id="g53"
     transform="translate(0,101.047)" /><g
     id="g55"
     transform="translate(0,101.047)" /><g
     id="g57"
     transform="translate(0,101.047)" /><g
     id="g59"
     transform="translate(0,101.047)" /><g
     id="g61"
     transform="translate(0,101.047)" /><g
     id="g63"
     transform="translate(0,101.047)" /><g
     id="g65"
     transform="translate(0,101.047)" /><g
     id="g67"
     transform="translate(0,101.047)" /></svg>