<?xml version="1.0" encoding="UTF-8" standalone="no"?>
<!-- Generator: Adobe Illustrator 16.0.0, SVG Export Plug-In . SVG Version: 6.00 Build 0)  -->

<svg
   xmlns:dc="http://purl.org/dc/elements/1.1/"
   xmlns:cc="http://creativecommons.org/ns#"
   xmlns:rdf="http://www.w3.org/1999/02/22-rdf-syntax-ns#"
   xmlns:svg="http://www.w3.org/2000/svg"
   xmlns="http://www.w3.org/2000/svg"
   xmlns:sodipodi="http://sodipodi.sourceforge.net/DTD/sodipodi-0.dtd"
   xmlns:inkscape="http://www.inkscape.org/namespaces/inkscape"
   version="1.1"
   id="Capa_1"
   x="0px"
   y="0px"
   width="128"
   height="128"
   viewBox="0 0 128 128"
   xml:space="preserve"
   inkscape:version="0.92.1 r"
   sodipodi:docname="search.svg"><metadata
     id="metadata41"><rdf:RDF><cc:Work
         rdf:about=""><dc:format>image/svg+xml</dc:format><dc:type
           rdf:resource="http://purl.org/dc/dcmitype/StillImage" /><dc:title /></cc:Work></rdf:RDF></metadata><defs
     id="defs39" /><sodipodi:namedview
     pagecolor="#ffffff"
     bordercolor="#666666"
     borderopacity="1"
     objecttolerance="10"
     gridtolerance="10"
     guidetolerance="10"
     inkscape:pageopacity="0"
     inkscape:pageshadow="2"
     inkscape:window-width="1920"
     inkscape:window-height="938"
     id="namedview37"
     showgrid="false"
     inkscape:zoom="2.7593042"
     inkscape:cx="-92.530438"
     inkscape:cy="72.7271"
     inkscape:window-x="0"
     inkscape:window-y="0"
     inkscape:window-maximized="1"
     inkscape:current-layer="Capa_1" /><path
     inkscape:connector-curvature="0"
     id="path5"
     d="m 85.474429,14.644687 c -19.526249,-19.5262485 -51.306668,-19.5262485 -70.832917,0 -19.5220159,19.530482 -19.5220159,51.306668 0,70.83715 17.388647,17.384413 44.470576,19.246883 63.984126,5.672051 0.410589,1.94289 1.350287,3.796888 2.861423,5.308025 l 28.436449,28.436447 c 4.14398,4.13552 10.84039,4.13552 14.96321,0 4.13975,-4.13975 4.13975,-10.83616 0,-14.96321 L 96.450272,81.490237 C 94.947601,79.991799 93.089369,79.047868 91.14648,78.637279 104.72977,59.119496 102.86731,32.0418 85.474429,14.644687 Z m -8.977926,61.859224 c -14.578019,14.578018 -38.303279,14.578018 -52.877065,0 -14.569553,-14.578019 -14.569553,-38.299046 0,-52.877065 14.573786,-14.5737857 38.299046,-14.5737857 52.877065,0 14.578018,14.578019 14.578018,38.299046 0,52.877065 z"
     style="stroke-width:4.23287439;fill:#394050;fill-opacity:1" /><g
     id="g7"
     transform="translate(0,97.761)" /><g
     id="g9"
     transform="translate(0,97.761)" /><g
     id="g11"
     transform="translate(0,97.761)" /><g
     id="g13"
     transform="translate(0,97.761)" /><g
     id="g15"
     transform="translate(0,97.761)" /><g
     id="g17"
     transform="translate(0,97.761)" /><g
     id="g19"
     transform="translate(0,97.761)" /><g
     id="g21"
     transform="translate(0,97.761)" /><g
     id="g23"
     transform="translate(0,97.761)" /><g
     id="g25"
     transform="translate(0,97.761)" /><g
     id="g27"
     transform="translate(0,97.761)" /><g
     id="g29"
     transform="translate(0,97.761)" /><g
     id="g31"
     transform="translate(0,97.761)" /><g
     id="g33"
     transform="translate(0,97.761)" /><g
     id="g35"
     transform="translate(0,97.761)" /></svg>