<?xml version="1.0" encoding="UTF-8" standalone="no"?>
<!-- Generator: Adobe Illustrator 18.1.1, SVG Export Plug-In . SVG Version: 6.00 Build 0)  -->

<svg
   xmlns:dc="http://purl.org/dc/elements/1.1/"
   xmlns:cc="http://creativecommons.org/ns#"
   xmlns:rdf="http://www.w3.org/1999/02/22-rdf-syntax-ns#"
   xmlns:svg="http://www.w3.org/2000/svg"
   xmlns="http://www.w3.org/2000/svg"
   xmlns:sodipodi="http://sodipodi.sourceforge.net/DTD/sodipodi-0.dtd"
   xmlns:inkscape="http://www.inkscape.org/namespaces/inkscape"
   version="1.1"
   id="Capa_1"
   x="0px"
   y="0px"
   viewBox="0 0 128 128"
   xml:space="preserve"
   inkscape:version="0.92.1 r"
   sodipodi:docname="basket.svg"
   width="128"
   height="128"><metadata
     id="metadata48"><rdf:RDF><cc:Work
         rdf:about=""><dc:format>image/svg+xml</dc:format><dc:type
           rdf:resource="http://purl.org/dc/dcmitype/StillImage" /><dc:title /></cc:Work></rdf:RDF></metadata><defs
     id="defs46" /><sodipodi:namedview
     pagecolor="#ffffff"
     bordercolor="#666666"
     borderopacity="1"
     objecttolerance="10"
     gridtolerance="10"
     guidetolerance="10"
     inkscape:pageopacity="0"
     inkscape:pageshadow="2"
     inkscape:window-width="1920"
     inkscape:window-height="938"
     id="namedview44"
     showgrid="false"
     inkscape:zoom="3.0649351"
     inkscape:cx="-1.6124899"
     inkscape:cy="71.781991"
     inkscape:window-x="0"
     inkscape:window-y="0"
     inkscape:window-maximized="1"
     inkscape:current-layer="Capa_1" /><g
     id="g4506"><path
       style="fill:#394050;fill-opacity:1;stroke-width:6.64934015"
       d="m 126.37736,19.904581 c -1.27003,-1.456206 -3.09859,-2.294023 -5.0269,-2.294023 H 29.463226 L 28.166605,9.8707265 C 27.634657,6.6657446 24.861883,4.3118782 21.610355,4.3118782 H 6.6493401 C 2.972255,4.3118782 0,7.2841332 0,10.961218 c 0,3.677085 2.972255,6.64934 6.6493401,6.64934 h 9.3290239 l 12.367773,74.233233 c 0.0532,0.299221 0.206129,0.545246 0.29922,0.824518 0.10639,0.352415 0.192831,0.684882 0.359065,1.004051 0.212778,0.438856 0.4987,0.811219 0.79792,1.190232 0.20613,0.259324 0.392311,0.518648 0.631688,0.744726 0.385661,0.359064 0.831167,0.611739 1.283322,0.864414 0.252675,0.139636 0.472103,0.325818 0.744726,0.432207 0.771324,0.312519 1.582543,0.498701 2.440308,0.498701 0.0067,0 73.149394,0 73.149394,0 3.67708,0 6.64934,-2.972255 6.64934,-6.64934 0,-3.677086 -2.97226,-6.649341 -6.64934,-6.649341 H 40.541027 l -1.103791,-6.64934 h 75.263884 c 3.31137,0 6.11739,-2.433658 6.58284,-5.705134 l 6.64934,-46.54538 c 0.27263,-1.91501 -0.29922,-3.849968 -1.55594,-5.299524 z m -12.69359,11.004658 -1.89506,13.29868 H 88.103756 v -13.29868 z m -32.229354,0 v 13.29868 h -19.94802 v -13.29868 z m 0,19.94802 v 13.29868 h -19.94802 v -13.29868 z m -26.59736,-19.94802 v 13.29868 h -19.94802 c -0.352416,0 -0.671584,0.09974 -0.984103,0.19948 l -2.247477,-13.49816 z m -19.85493,19.94802 h 19.85493 v 13.29868 H 37.216357 Z m 53.10163,13.29868 V 50.857259 H 110.8312 l -1.89506,13.29868 z"
       id="path8"
       inkscape:connector-curvature="0" /><circle
       style="fill:#394050;fill-opacity:1;stroke-width:6.64934015"
       cx="44.883045"
       cy="114.02599"
       r="9.9740105"
       id="circle10" /><circle
       style="fill:#394050;fill-opacity:1;stroke-width:6.64934015"
       cx="104.7271"
       cy="114.02599"
       r="9.9740105"
       id="circle12" /></g><g
     id="g14"
     transform="translate(0,108.75)" /><g
     id="g16"
     transform="translate(0,108.75)" /><g
     id="g18"
     transform="translate(0,108.75)" /><g
     id="g20"
     transform="translate(0,108.75)" /><g
     id="g22"
     transform="translate(0,108.75)" /><g
     id="g24"
     transform="translate(0,108.75)" /><g
     id="g26"
     transform="translate(0,108.75)" /><g
     id="g28"
     transform="translate(0,108.75)" /><g
     id="g30"
     transform="translate(0,108.75)" /><g
     id="g32"
     transform="translate(0,108.75)" /><g
     id="g34"
     transform="translate(0,108.75)" /><g
     id="g36"
     transform="translate(0,108.75)" /><g
     id="g38"
     transform="translate(0,108.75)" /><g
     id="g40"
     transform="translate(0,108.75)" /><g
     id="g42"
     transform="translate(0,108.75)" /></svg>