<?xml version="1.0" encoding="UTF-8" standalone="no"?>
<!-- Created with Inkscape (http://www.inkscape.org/) -->

<svg
   xmlns:dc="http://purl.org/dc/elements/1.1/"
   xmlns:cc="http://creativecommons.org/ns#"
   xmlns:rdf="http://www.w3.org/1999/02/22-rdf-syntax-ns#"
   xmlns:svg="http://www.w3.org/2000/svg"
   xmlns="http://www.w3.org/2000/svg"
   xmlns:sodipodi="http://sodipodi.sourceforge.net/DTD/sodipodi-0.dtd"
   xmlns:inkscape="http://www.inkscape.org/namespaces/inkscape"
   id="svg2"
   version="1.1"
   inkscape:version="0.92.1 r"
   width="500"
   height="500"
   sodipodi:docname="network-server.svg">
  <metadata
     id="metadata8">
    <rdf:RDF>
      <cc:Work
         rdf:about="">
        <dc:format>image/svg+xml</dc:format>
        <dc:type
           rdf:resource="http://purl.org/dc/dcmitype/StillImage" />
        <dc:title />
      </cc:Work>
    </rdf:RDF>
  </metadata>
  <defs
     id="defs6" />
  <sodipodi:namedview
     pagecolor="#ffffff"
     bordercolor="#666666"
     borderopacity="1"
     objecttolerance="10"
     gridtolerance="10"
     guidetolerance="10"
     inkscape:pageopacity="0"
     inkscape:pageshadow="2"
     inkscape:window-width="1920"
     inkscape:window-height="938"
     id="namedview4"
     showgrid="false"
     inkscape:zoom="0.48230404"
     inkscape:cx="921.22336"
     inkscape:cy="314.75409"
     inkscape:window-x="0"
     inkscape:window-y="0"
     inkscape:window-maximized="1"
     inkscape:current-layer="svg2" />
  <path
     style="fill:#5d6a7b;stroke:none;stroke-width:1px;stroke-linecap:butt;stroke-linejoin:miter;stroke-opacity:1;fill-opacity:1"
     d="m 86.316738,170.12712 c 0,0 3.056757,-7.15262 5.864407,-11.91208 2.80765,-4.75946 11.362285,-16.31038 11.362285,-16.31038 l -0.36652,62.30932 -9.529663,-2.19915 z"
     id="path922"
     inkscape:connector-curvature="0"
     sodipodi:nodetypes="czcccc" />
  <g
     id="Calque.__202"
     transform="matrix(0.38134828,0,0,0.38897835,48.066276,2.28136)">
    <g
       id="shape">
      <path
         id="path"
         d="M 919.15,109.8 Q 918.7,89.9 904.5,75.7 C 894.75,65.95 882.95,61.05 869.15,61.05 l -674.2,0 c -13.8,0 -25.6,4.9 -35.35,14.65 -9.45,9.45 -14.35,20.85 -14.65,34.1 l 0,843.25 c 0,13.8 4.9,25.6 14.65,35.35 9.75,9.75 21.55,14.65 35.35,14.65 l 674.2,0 c 13.8,0 25.6,-4.9 35.35,-14.65 9.75,-9.75 14.65,-21.55 14.65,-35.35 l 0,-843.25 z"
         inkscape:connector-curvature="0"
         style="fill:#000000;fill-opacity:0.09803922" />
    </g>
  </g>
  <path
     id="path1"
     d="M 396.07495,30.69853 C 392.28242,26.90599 387.69247,25 382.32457,25 l -262.2492,0 c -5.3679,0 -9.95784,1.90599 -13.75039,5.69853 -3.67585,3.67584 -5.58184,8.1102 -5.69853,13.26416 l 0,-0.01 0,281.84402 q 0.17815,7.72428 5.69853,13.24471 c 3.79255,3.79245 8.38249,5.69844 13.75039,5.69844 l 262.2492,0 c 5.3679,0 9.95784,-1.90599 13.75038,-5.69844 3.67586,-3.67585 5.58185,-8.09075 5.69854,-13.24471 l 0,-281.84402 0,0.01 c -0.11669,-5.15396 -2.02269,-9.58832 -5.69854,-13.26416 z"
     inkscape:connector-curvature="0"
     style="fill:#ebebeb;fill-opacity:1" />
  <path
     id="path2"
     d="m 106.32498,339.04171 q -5.52038,-5.52043 -5.69853,-13.24471 l 0,46.17164 c 0,5.3679 1.90599,9.95787 5.69853,13.7504 3.79255,3.79254 8.38249,5.69852 13.75039,5.69852 l 262.24921,0 c 5.3679,0 9.95784,-1.90598 13.75038,-5.69852 3.79255,-3.79253 5.69854,-8.3825 5.69854,-13.7504 l 0,-46.17164 c -0.11669,5.15396 -2.02269,9.56886 -5.69854,13.24471 -3.79254,3.79245 -8.38248,5.69844 -13.75038,5.69844 l -262.24921,0 c -5.3679,0 -9.95784,-1.90599 -13.75039,-5.69844 z"
     inkscape:connector-curvature="0"
     style="fill:#5d6a7b;fill-opacity:0.98823529" />
  <g
     transform="matrix(0.38897835,0,0,0.38897835,46.960296,2.28136)"
     id="Calque.__204"
     style="fill:#394050">
    <g
       id="Symbole.__2026_1"
       overflow="visible"
       style="fill:#394050;overflow:visible">
      <g
         id="Calque.__208"
         style="fill:#394050">
        <g
           id="shape17"
           style="fill:#394050">
          <path
             inkscape:connector-curvature="0"
             id="path11"
             d="m 518,918 q 0,-8.3 -5.85,-14.15 C 508.25,899.95 503.55,898 498,898 l -302,0 c -5.55,0 -10.25,1.95 -14.15,5.85 -3.9,3.9 -5.85,8.6 -5.85,14.15 l 0,8.2 c 0,5.55 1.95,10.25 5.85,14.15 3.9,3.9 8.6,5.85 14.15,5.85 l 302,0 c 5.55,0 10.25,-1.95 14.15,-5.85 3.9,-3.9 5.85,-8.6 5.85,-14.15 l 0,-8.2 z"
             style="fill:#394050;fill-opacity:1" />
        </g>
      </g>
    </g>
  </g>
  <g
     transform="matrix(0.38897835,0,0,0.38897835,46.960296,2.28136)"
     id="Calque.__205">
    <g
       id="shape6">
      <path
         style="fill:#000000;fill-opacity:0.2"
         inkscape:connector-curvature="0"
         id="path3"
         d="M 849.65,912.15 Q 843.1,905.6 833.8,905.6 c -6.2,0 -11.5,2.2 -15.9,6.55 -4.35,4.4 -6.55,9.7 -6.55,15.9 0,6.2 2.2,11.5 6.55,15.85 4.4,4.4 9.7,6.6 15.9,6.6 6.2,0 11.5,-2.2 15.85,-6.6 4.4,-4.35 6.6,-9.65 6.6,-15.85 0,-6.2 -2.2,-11.5 -6.6,-15.9 z m -64.85,15.9 c 0,-6.2 -2.2,-11.5 -6.6,-15.9 -4.35,-4.35 -9.65,-6.55 -15.85,-6.55 -6.2,0 -11.5,2.2 -15.9,6.55 -4.35,4.4 -6.55,9.7 -6.55,15.9 0,6.2 2.2,11.5 6.55,15.85 4.4,4.4 9.7,6.6 15.9,6.6 6.2,0 11.5,-2.2 15.85,-6.6 4.4,-4.35 6.6,-9.65 6.6,-15.85 z" />
    </g>
  </g>
  <path
     id="path6"
     d="m 320.56767,252.00546 q 30.82653,-30.82653 30.82653,-74.43101 c 0,-29.07613 -10.26902,-53.8735 -30.82653,-74.43101 -20.5575,-20.5575 -45.35488,-30.82653 -74.43101,-30.82653 -29.07613,0 -53.87351,10.26903 -74.43101,30.82653 -20.55751,20.55751 -30.82654,45.35488 -30.82654,74.43101 0,29.07613 10.26903,53.8735 30.82654,74.43101 20.5575,20.55751 45.35488,30.82654 74.43101,30.82654 29.07613,0 53.8735,-10.26903 74.43101,-30.82654 z"
     inkscape:connector-curvature="0"
     style="fill:#ffffff;fill-opacity:0.09803922" />
  <path
     id="path7"
     d="m 369.44281,368.11552 c 2.41165,0 4.47323,-0.85574 6.1653,-2.56731 1.7115,-1.69205 2.56725,-3.75358 2.56725,-6.16525 0,-2.41167 -0.85575,-4.47329 -2.56725,-6.18477 -1.69207,-1.69205 -3.75365,-2.54779 -6.1653,-2.54779 -2.41168,0 -4.47326,0.85574 -6.18478,2.54779 -1.69204,1.71148 -2.5478,3.7731 -2.5478,6.18477 0,2.41167 0.85576,4.4732 2.5478,6.16525 1.71151,1.71157 3.7731,2.56731 6.18478,2.56731 z m -19.05996,-8.73256 c 0,-2.41167 -0.85575,-4.47329 -2.56725,-6.18477 -1.69206,-1.69205 -3.75364,-2.54779 -6.1653,-2.54779 -2.41167,0 -4.47325,0.85574 -6.18476,2.54779 -1.69205,1.71148 -2.54781,3.7731 -2.54781,6.18477 0,2.41167 0.85575,4.4732 2.54781,6.16525 1.71151,1.71157 3.77309,2.56731 6.18476,2.56731 2.41167,0 4.47325,-0.85574 6.1653,-2.56731 1.7115,-1.69205 2.56725,-3.75358 2.56725,-6.16525 z"
     inkscape:connector-curvature="0"
     style="fill:#ffcc00;fill-opacity:1" />
  <path
     id="path2-3"
     d="m 106.2971,368.15424 q -5.52038,-5.52043 -5.69853,-13.24472 l 0,46.17164 c 0,5.3679 1.90599,9.95787 5.69853,13.75041 3.79254,3.79253 8.38248,5.69852 13.75039,5.69852 l 262.2492,0 c 5.36791,0 9.95785,-1.90599 13.75038,-5.69852 3.79254,-3.79254 5.69853,-8.38251 5.69853,-13.75041 l 0,-46.17164 c -0.11669,5.15396 -2.02267,9.56887 -5.69853,13.24472 -3.79253,3.79245 -8.38247,5.69843 -13.75038,5.69843 l -262.2492,0 c -5.36791,0 -9.95785,-1.90598 -13.75039,-5.69843 z"
     inkscape:connector-curvature="0"
     style="fill:#5d6a7b;fill-opacity:0.98823529" />
  <g
     transform="matrix(0.38897835,0,0,0.38897835,46.932412,31.39388)"
     id="Calque.__204-6"
     style="fill:#394050">
    <g
       id="Symbole.__2026_1-7"
       overflow="visible"
       style="fill:#394050;overflow:visible">
      <g
         id="Calque.__208-5"
         style="fill:#394050">
        <g
           id="shape17-3"
           style="fill:#394050">
          <path
             inkscape:connector-curvature="0"
             id="path11-5"
             d="m 518,918 q 0,-8.3 -5.85,-14.15 C 508.25,899.95 503.55,898 498,898 l -302,0 c -5.55,0 -10.25,1.95 -14.15,5.85 -3.9,3.9 -5.85,8.6 -5.85,14.15 l 0,8.2 c 0,5.55 1.95,10.25 5.85,14.15 3.9,3.9 8.6,5.85 14.15,5.85 l 302,0 c 5.55,0 10.25,-1.95 14.15,-5.85 3.9,-3.9 5.85,-8.6 5.85,-14.15 l 0,-8.2 z"
             style="fill:#394050;fill-opacity:1" />
        </g>
      </g>
    </g>
  </g>
  <g
     transform="matrix(0.38897835,0,0,0.38897835,46.932412,31.39388)"
     id="Calque.__205-6">
    <g
       id="shape6-2">
      <path
         style="fill:#000000;fill-opacity:0.2"
         inkscape:connector-curvature="0"
         id="path3-9"
         d="M 849.65,912.15 Q 843.1,905.6 833.8,905.6 c -6.2,0 -11.5,2.2 -15.9,6.55 -4.35,4.4 -6.55,9.7 -6.55,15.9 0,6.2 2.2,11.5 6.55,15.85 4.4,4.4 9.7,6.6 15.9,6.6 6.2,0 11.5,-2.2 15.85,-6.6 4.4,-4.35 6.6,-9.65 6.6,-15.85 0,-6.2 -2.2,-11.5 -6.6,-15.9 z m -64.85,15.9 c 0,-6.2 -2.2,-11.5 -6.6,-15.9 -4.35,-4.35 -9.65,-6.55 -15.85,-6.55 -6.2,0 -11.5,2.2 -15.9,6.55 -4.35,4.4 -6.55,9.7 -6.55,15.9 0,6.2 2.2,11.5 6.55,15.85 4.4,4.4 9.7,6.6 15.9,6.6 6.2,0 11.5,-2.2 15.85,-6.6 4.4,-4.35 6.6,-9.65 6.6,-15.85 z" />
    </g>
  </g>
  <path
     id="path7-1"
     d="m 369.41491,397.22804 c 2.41166,0 4.47326,-0.85574 6.16531,-2.5673 1.7115,-1.69205 2.56725,-3.75359 2.56725,-6.16526 0,-2.41167 -0.85575,-4.47329 -2.56725,-6.18477 -1.69206,-1.69205 -3.75365,-2.54779 -6.16531,-2.54779 -2.41167,0 -4.47325,0.85574 -6.18475,2.54779 -1.69205,1.71148 -2.54782,3.7731 -2.54782,6.18477 0,2.41167 0.85576,4.47321 2.54782,6.16526 1.7115,1.71156 3.77309,2.5673 6.18475,2.5673 z m -19.05993,-8.73256 c 0,-2.41167 -0.85575,-4.47329 -2.56726,-6.18477 -1.69205,-1.69205 -3.75364,-2.54779 -6.1653,-2.54779 -2.41167,0 -4.47326,0.85574 -6.18476,2.54779 -1.69205,1.71148 -2.54781,3.7731 -2.54781,6.18477 0,2.41167 0.85575,4.47321 2.54781,6.16526 1.7115,1.71156 3.77309,2.5673 6.18476,2.5673 2.41166,0 4.47325,-0.85574 6.1653,-2.5673 1.71151,-1.69205 2.56726,-3.75359 2.56726,-6.16526 z"
     inkscape:connector-curvature="0"
     style="fill:#ffcc00;fill-opacity:1" />
  <path
     id="path2-2"
     d="M 105.69853,396.28705 Q 100.17815,390.76663 100,383.04234 l 0,46.17164 c 0,5.3679 1.90599,9.95787 5.69853,13.7504 3.79255,3.79254 8.38249,5.69852 13.75039,5.69852 l 262.2492,0 c 5.36791,0 9.95785,-1.90598 13.75039,-5.69852 3.79254,-3.79253 5.69853,-8.3825 5.69853,-13.7504 l 0,-46.17164 c -0.11669,5.15396 -2.02268,9.56886 -5.69853,13.24471 -3.79254,3.79246 -8.38248,5.69844 -13.75039,5.69844 l -262.2492,0 c -5.3679,0 -9.95784,-1.90598 -13.75039,-5.69844 z"
     inkscape:connector-curvature="0"
     style="fill:#5d6a7b;fill-opacity:0.98823529" />
  <g
     transform="matrix(0.38897835,0,0,0.38897835,46.333845,59.52669)"
     id="Calque.__204-7"
     style="fill:#394050">
    <g
       id="Symbole.__2026_1-0"
       overflow="visible"
       style="fill:#394050;overflow:visible">
      <g
         id="Calque.__208-9"
         style="fill:#394050">
        <g
           id="shape17-36"
           style="fill:#394050">
          <path
             inkscape:connector-curvature="0"
             id="path11-0"
             d="m 518,918 q 0,-8.3 -5.85,-14.15 C 508.25,899.95 503.55,898 498,898 l -302,0 c -5.55,0 -10.25,1.95 -14.15,5.85 -3.9,3.9 -5.85,8.6 -5.85,14.15 l 0,8.2 c 0,5.55 1.95,10.25 5.85,14.15 3.9,3.9 8.6,5.85 14.15,5.85 l 302,0 c 5.55,0 10.25,-1.95 14.15,-5.85 3.9,-3.9 5.85,-8.6 5.85,-14.15 l 0,-8.2 z"
             style="fill:#394050;fill-opacity:1" />
        </g>
      </g>
    </g>
  </g>
  <g
     transform="matrix(0.38897835,0,0,0.38897835,46.333845,59.52669)"
     id="Calque.__205-62">
    <g
       id="shape6-6">
      <path
         style="fill:#000000;fill-opacity:0.2"
         inkscape:connector-curvature="0"
         id="path3-1"
         d="M 849.65,912.15 Q 843.1,905.6 833.8,905.6 c -6.2,0 -11.5,2.2 -15.9,6.55 -4.35,4.4 -6.55,9.7 -6.55,15.9 0,6.2 2.2,11.5 6.55,15.85 4.4,4.4 9.7,6.6 15.9,6.6 6.2,0 11.5,-2.2 15.85,-6.6 4.4,-4.35 6.6,-9.65 6.6,-15.85 0,-6.2 -2.2,-11.5 -6.6,-15.9 z m -64.85,15.9 c 0,-6.2 -2.2,-11.5 -6.6,-15.9 -4.35,-4.35 -9.65,-6.55 -15.85,-6.55 -6.2,0 -11.5,2.2 -15.9,6.55 -4.35,4.4 -6.55,9.7 -6.55,15.9 0,6.2 2.2,11.5 6.55,15.85 4.4,4.4 9.7,6.6 15.9,6.6 6.2,0 11.5,-2.2 15.85,-6.6 4.4,-4.35 6.6,-9.65 6.6,-15.85 z" />
    </g>
  </g>
  <path
     id="path7-8"
     d="m 368.81635,425.36086 c 2.41166,0 4.47325,-0.85574 6.1653,-2.56731 1.71151,-1.69205 2.56726,-3.75358 2.56726,-6.16525 0,-2.41167 -0.85575,-4.47329 -2.56726,-6.18477 -1.69205,-1.69205 -3.75364,-2.54779 -6.1653,-2.54779 -2.41167,0 -4.47326,0.85574 -6.18476,2.54779 -1.69205,1.71148 -2.54781,3.7731 -2.54781,6.18477 0,2.41167 0.85576,4.4732 2.54781,6.16525 1.7115,1.71157 3.7731,2.56731 6.18476,2.56731 z m -19.05994,-8.73256 c 0,-2.41167 -0.85575,-4.47329 -2.56725,-6.18477 -1.69207,-1.69205 -3.75365,-2.54779 -6.1653,-2.54779 -2.41168,0 -4.47326,0.85574 -6.18478,2.54779 -1.69204,1.71148 -2.54779,3.7731 -2.54779,6.18477 0,2.41167 0.85575,4.4732 2.54779,6.16525 1.71151,1.71157 3.7731,2.56731 6.18478,2.56731 2.41165,0 4.47323,-0.85574 6.1653,-2.56731 1.7115,-1.69205 2.56725,-3.75358 2.56725,-6.16525 z"
     inkscape:connector-curvature="0"
     style="fill:#ffcc00;fill-opacity:1" />
  <path
     id="path2-7"
     d="M 105.69853,422.62415 Q 100.17815,417.10372 100,409.37944 l 0,46.17164 c 0,5.3679 1.90599,9.95787 5.69853,13.7504 3.79254,3.79254 8.38249,5.69852 13.75039,5.69852 l 262.2492,0 c 5.36791,0 9.95785,-1.90598 13.75039,-5.69852 3.79254,-3.79253 5.69853,-8.3825 5.69853,-13.7504 l 0,-46.17164 c -0.11669,5.15396 -2.02268,9.56886 -5.69853,13.24471 -3.79254,3.79245 -8.38248,5.69844 -13.75039,5.69844 l -262.2492,0 c -5.3679,0 -9.95785,-1.90599 -13.75039,-5.69844 z"
     inkscape:connector-curvature="0"
     style="fill:#5d6a7b;fill-opacity:0.98823529" />
  <g
     transform="matrix(0.38897835,0,0,0.38897835,46.333845,85.86379)"
     id="Calque.__204-9"
     style="fill:#394050">
    <g
       id="Symbole.__2026_1-2"
       overflow="visible"
       style="fill:#394050;overflow:visible">
      <g
         id="Calque.__208-0"
         style="fill:#394050">
        <g
           id="shape17-2"
           style="fill:#394050">
          <path
             inkscape:connector-curvature="0"
             id="path11-3"
             d="m 518,918 q 0,-8.3 -5.85,-14.15 C 508.25,899.95 503.55,898 498,898 l -302,0 c -5.55,0 -10.25,1.95 -14.15,5.85 -3.9,3.9 -5.85,8.6 -5.85,14.15 l 0,8.2 c 0,5.55 1.95,10.25 5.85,14.15 3.9,3.9 8.6,5.85 14.15,5.85 l 302,0 c 5.55,0 10.25,-1.95 14.15,-5.85 3.9,-3.9 5.85,-8.6 5.85,-14.15 l 0,-8.2 z"
             style="fill:#394050;fill-opacity:1" />
        </g>
      </g>
    </g>
  </g>
  <g
     transform="matrix(0.38897835,0,0,0.38897835,46.333845,85.86379)"
     id="Calque.__205-7">
    <g
       id="shape6-5">
      <path
         style="fill:#000000;fill-opacity:0.2"
         inkscape:connector-curvature="0"
         id="path3-92"
         d="M 849.65,912.15 Q 843.1,905.6 833.8,905.6 c -6.2,0 -11.5,2.2 -15.9,6.55 -4.35,4.4 -6.55,9.7 -6.55,15.9 0,6.2 2.2,11.5 6.55,15.85 4.4,4.4 9.7,6.6 15.9,6.6 6.2,0 11.5,-2.2 15.85,-6.6 4.4,-4.35 6.6,-9.65 6.6,-15.85 0,-6.2 -2.2,-11.5 -6.6,-15.9 z m -64.85,15.9 c 0,-6.2 -2.2,-11.5 -6.6,-15.9 -4.35,-4.35 -9.65,-6.55 -15.85,-6.55 -6.2,0 -11.5,2.2 -15.9,6.55 -4.35,4.4 -6.55,9.7 -6.55,15.9 0,6.2 2.2,11.5 6.55,15.85 4.4,4.4 9.7,6.6 15.9,6.6 6.2,0 11.5,-2.2 15.85,-6.6 4.4,-4.35 6.6,-9.65 6.6,-15.85 z" />
    </g>
  </g>
  <path
     id="path7-2"
     d="m 368.81635,451.69796 c 2.41166,0 4.47325,-0.85574 6.1653,-2.56731 1.71151,-1.69205 2.56726,-3.75358 2.56726,-6.16525 0,-2.41167 -0.85575,-4.47329 -2.56726,-6.18477 -1.69205,-1.69205 -3.75364,-2.54779 -6.1653,-2.54779 -2.41167,0 -4.47326,0.85574 -6.18476,2.54779 -1.69205,1.71148 -2.54781,3.7731 -2.54781,6.18477 0,2.41167 0.85576,4.4732 2.54781,6.16525 1.7115,1.71157 3.7731,2.56731 6.18476,2.56731 z m -19.05994,-8.73256 c 0,-2.41167 -0.85575,-4.47329 -2.56725,-6.18477 -1.69207,-1.69205 -3.75365,-2.54779 -6.1653,-2.54779 -2.41168,0 -4.47326,0.85574 -6.18478,2.54779 -1.69204,1.71148 -2.54779,3.7731 -2.54779,6.18477 0,2.41167 0.85575,4.4732 2.54779,6.16525 1.71151,1.71157 3.7731,2.56731 6.18478,2.56731 2.41165,0 4.47323,-0.85574 6.1653,-2.56731 1.7115,-1.69205 2.56725,-3.75358 2.56725,-6.16525 z"
     inkscape:connector-curvature="0"
     style="fill:#ffcc00;fill-opacity:1" />
  <path
     style="fill:#e6e6e6;stroke:none"
     d="m 342.31139,84.16696 65.69499,65.69495 32.71959,-31.18594 -65.69484,-64.92806 z"
     id="path4247"
     inkscape:connector-curvature="0" />
  <rect
     style="fill:#d4aa00;fill-opacity:1;stroke:none"
     id="rect4128-7"
     width="6.8685765"
     height="32.896912"
     x="311.43164"
     y="-222.04904"
     rx="3.4342883"
     ry="0"
     transform="rotate(44.950307)" />
  <path
     style="fill:#cccccc;stroke:none"
     d="m 284.46163,130.12964 84.23044,-83.50756 8.85689,8.85686 -26.57051,26.38984 59.46747,59.82899 27.29354,-26.38981 8.8569,9.21836 -87.15827,87.19622 z"
     id="path4192"
     inkscape:connector-curvature="0" />
  <rect
     style="fill:#d4aa00;fill-opacity:1;stroke:none"
     id="rect4128-1-3"
     width="6.8685765"
     height="32.896912"
     x="324.71381"
     y="-222.1423"
     rx="3.4342883"
     ry="0"
     transform="rotate(44.950307)" />
  <path
     style="fill:#5d6a7b;stroke:none"
     d="m 87.65514,167.03072 c -4.81394,12.41905 -10.8338,29.53534 -11.10441,33.89032 -0.2706,4.35488 -0.67633,22.64994 2.59093,33.79935 5.44839,18.59227 16.18961,34.2177 19.82235,38.50152 3.63271,4.28373 14.69431,16.16251 24.20398,21.36601 17.14691,9.3824 36.33086,12.3197 43.2166,12.4346 6.88575,0.1153 27.973,-1.1436 41.41039,-7.9688 19.86246,-10.089 34.68631,-27.05181 34.68631,-27.05181 l 16.08695,16.08691 11.02586,-7.27535 -17.89441,-18.07512 6.86855,-6.82338 19.34048,19.2953 11.16144,-7.27538 -21.28352,-21.19317 6.9137,-7.00418 22.594,22.63921 11.16142,-7.36561 -24.62741,-24.35635 7.04935,-6.95906 25.80238,25.84759 11.16142,-7.36569 -27.7907,-27.79057 7.04936,-7.04931 28.92041,29.10104 38.952,-25.66676 8.13399,-10.3933 -92.15142,-92.0339 -10.22495,8.11603 -25.88168,38.91849 29.07704,29.141 -6.96574,6.83791 -27.86278,-27.73512 -7.34917,11.1835 25.94572,25.9457 -6.83795,6.96566 -24.53971,-24.53968 -7.47696,11.05563 22.62256,22.6865 -6.90181,7.15741 -21.21663,-21.40835 -7.34914,11.24737 19.4912,19.2996 -7.09353,7.09333 -18.02136,-18.08524 -7.41307,11.11964 16.29593,16.16809 c 0,0 -20.01491,24.43103 -45.22872,26.7841 -22.40533,2.09102 -34.83282,-7.67893 -43.02487,-13.23618 -8.19205,-5.55708 -25.80354,-33.64988 -28.11845,-42.43319 -2.31492,-8.78329 -3.12593,-11.34454 -1.9602,-20.35086 -0.37754,1.10045 -3.69099,-6.3819 -6.66476,-14.26146 -3.45214,-9.14712 -6.60097,-18.98399 -6.60097,-18.98399 z"
     id="path4190"
     inkscape:connector-curvature="0"
     sodipodi:nodetypes="czszszsccccccccccccccccccccccccccccccccccccccccszzcsc" />
  <rect
     style="fill:#d4aa00;fill-opacity:1;stroke:none"
     id="rect4128-5-6"
     width="6.8685765"
     height="32.896912"
     x="339.24286"
     y="-222.1557"
     rx="3.4342883"
     ry="0"
     transform="rotate(44.950307)" />
  <rect
     style="fill:#d4aa00;fill-opacity:1;stroke:none"
     id="rect4128-5-7-6"
     width="6.8685765"
     height="32.896912"
     x="366.29938"
     y="-222.28049"
     rx="3.4342883"
     ry="0"
     transform="rotate(44.950307)" />
  <rect
     style="fill:#d4aa00;fill-opacity:1;stroke:none"
     id="rect4128-1-9-5"
     width="6.8685765"
     height="32.896912"
     x="352.52496"
     y="-222.20386"
     rx="3.4342883"
     ry="0"
     transform="rotate(44.950307)" />
  <path
     style="fill:#394050;stroke:none"
     d="m 317.49343,189.17206 -14.46028,-14.09864 33.04455,-31.8683 -7.28527,-11.8865 35.78712,-35.53148 32.33624,32.33628 -35.91493,35.78704 -11.24733,-7.02952 z"
     id="path4194"
     inkscape:connector-curvature="0" />
  <rect
     style="fill:#d4aa00;fill-opacity:1;stroke:none"
     id="rect4128-1-9-7-3"
     width="6.8685765"
     height="32.896912"
     x="379.5816"
     y="-222.37384"
     rx="3.4342883"
     ry="0"
     transform="rotate(44.950307)" />
</svg>
