<?xml version="1.0" encoding="UTF-8" standalone="no"?>
<!-- Created with Inkscape (http://www.inkscape.org/) -->

<svg
   xmlns:dc="http://purl.org/dc/elements/1.1/"
   xmlns:cc="http://creativecommons.org/ns#"
   xmlns:rdf="http://www.w3.org/1999/02/22-rdf-syntax-ns#"
   xmlns:svg="http://www.w3.org/2000/svg"
   xmlns="http://www.w3.org/2000/svg"
   xmlns:sodipodi="http://sodipodi.sourceforge.net/DTD/sodipodi-0.dtd"
   xmlns:inkscape="http://www.inkscape.org/namespaces/inkscape"
   width="500"
   height="500"
   id="svg2"
   version="1.1"
   inkscape:version="0.92.1 r"
   sodipodi:docname="settings.svg">
  <defs
     id="defs4" />
  <sodipodi:namedview
     id="base"
     pagecolor="#ffffff"
     bordercolor="#666666"
     borderopacity="1.0"
     inkscape:pageopacity="0.0"
     inkscape:pageshadow="2"
     inkscape:zoom="0.38113056"
     inkscape:cx="-573.19288"
     inkscape:cy="143.80708"
     inkscape:document-units="px"
     inkscape:current-layer="layer1"
     showgrid="false"
     inkscape:window-width="1920"
     inkscape:window-height="938"
     inkscape:window-x="0"
     inkscape:window-y="0"
     inkscape:window-maximized="1" />
  <metadata
     id="metadata7">
    <rdf:RDF>
      <cc:Work
         rdf:about="">
        <dc:format>image/svg+xml</dc:format>
        <dc:type
           rdf:resource="http://purl.org/dc/dcmitype/StillImage" />
        <dc:title />
      </cc:Work>
    </rdf:RDF>
  </metadata>
  <g
     inkscape:label="Layer 1"
     inkscape:groupmode="layer"
     id="layer1"
     transform="translate(0,-552.36218)">
    <path
       inkscape:connector-curvature="0"
       id="path2986"
       d="m 217.45939,1040.8647 c -4.20868,-1.8783 -8.68523,-6.6849 -10.68276,-11.4707 -1.02951,-2.4662 -2.05692,-11.9471 -2.93658,-27.0974 -0.74414,-12.81719 -1.72405,-24.3261 -2.17755,-25.57533 -0.60154,-1.65696 -3.54235,-3.22026 -10.8731,-5.77973 -5.52666,-1.92976 -13.8494,-5.41949 -18.49496,-7.75488 -4.64551,-2.33556 -9.45851,-4.24636 -10.69555,-4.24636 -1.38739,0 -8.97623,6.17044 -19.8076,16.10548 -9.65716,8.85807 -19.11967,16.9059 -21.02776,17.8844 -3.92765,2.014 -12.76445,2.34196 -17.32777,0.6428 -3.628399,-1.3511 -42.011695,-39.17143 -44.472694,-43.82044 -2.440934,-4.6112 -2.179872,-13.23685 0.558759,-18.46246 1.246656,-2.37877 9.365241,-12.01913 18.041357,-21.42307 9.339475,-10.12297 15.77472,-17.98139 15.77472,-19.26337 0,-1.19096 -1.911034,-5.96581 -4.246771,-10.61084 -2.335757,-4.64501 -5.818272,-12.94521 -7.738964,-18.44488 -1.920672,-5.49965 -4.278009,-10.40669 -5.238451,-10.90445 -0.960499,-0.49782 -12.234336,-1.48319 -25.052986,-2.18976 -14.90809,-0.82175 -24.94201,-1.87018 -27.844858,-2.9094 -5.53198,-1.98052 -11.905344,-8.76276 -12.805785,-13.62734 -0.365223,-1.97307 -0.5147335,-16.59068 -0.332256,-32.48354 l 0.331776,-28.89616 3.321715,-4.163 c 5.87015,-7.35684 8.629516,-8.09583 36.667354,-9.82018 15.869434,-0.976 25.516455,-2.00946 26.317786,-2.81938 0.695789,-0.7032 3.073843,-6.15617 5.28455,-12.11764 2.210727,-5.96151 5.66594,-14.11927 7.678196,-18.1284 2.012294,-4.00913 3.658694,-8.17045 3.658694,-9.24744 0,-1.07696 -6.63767,-9.23815 -14.7504,-18.13592 -8.112749,-8.89778 -15.872813,-17.662 -17.244557,-19.47609 -3.858221,-5.10215 -5.162919,-11.42019 -3.63648,-17.60981 1.152556,-4.67353 3.263712,-7.20708 20.89584,-25.07623 10.787559,-10.9326 21.423625,-20.80968 23.635685,-21.94911 5.13325,-2.64409 13.29546,-2.6807 18.39229,-0.0824 2.14615,1.09406 11.56176,9.02013 20.92354,17.61348 9.36181,8.59337 17.65577,15.98447 18.43106,16.42471 0.81704,0.46391 5.85992,-1.30751 11.99618,-4.21396 5.82261,-2.75787 14.53473,-6.34482 19.36021,-7.97098 6.54292,-2.2049 9.08162,-3.61377 9.98496,-5.54121 0.66624,-1.42151 1.80883,-13.07137 2.5391,-25.88857 1.40444,-24.64969 2.24832,-28.5462 7.33175,-33.85281 5.65459,-5.90289 8.90665,-6.38715 40.51269,-6.03264 l 28.78766,0.32287 4.50359,2.98195 c 7.74841,5.13047 8.68633,8.3202 10.51114,35.74671 0.88333,13.27583 1.84723,25.17192 2.14201,26.43568 0.41487,1.7786 2.78768,3.08397 10.50151,5.77729 5.48105,1.91376 14.25858,5.6354 19.50563,8.27035 5.24707,2.63493 9.96054,4.79078 10.47437,4.79078 0.51385,0 8.93836,-7.34596 18.72119,-16.32433 9.7828,-8.97836 19.59677,-17.27025 21.80884,-18.4264 5.22902,-2.73299 13.01214,-2.70808 18.73071,0.0601 2.71523,1.31424 11.93942,9.70826 23.52436,21.40714 19.88621,20.08179 21.45341,22.3793 21.46886,31.47392 0.01,6.43241 -2.85302,10.65207 -19.94941,29.39299 -9.29587,10.19004 -16.90159,18.95943 -16.90159,19.48751 0,0.52808 2.42631,6.01708 5.3918,12.19781 2.96546,6.18071 6.5021,14.83663 7.8592,19.23541 1.68595,5.46467 3.15413,8.28945 4.63549,8.91858 1.19244,0.50644 13.17794,1.60833 26.63447,2.44868 26.70465,1.66761 31.00622,2.76627 35.48362,9.06297 4.23266,5.95251 4.72497,10.41369 4.35842,39.49671 l -0.35073,27.82016 -3.26701,4.64502 c -5.83385,8.29437 -7.30724,8.71934 -36.93339,10.65234 -14.47598,0.94453 -26.5739,1.97117 -26.88423,2.28152 -0.31037,0.31033 -2.10749,4.93655 -3.9936,10.28047 -1.88615,5.34398 -5.59511,14.02858 -8.24215,19.29918 -2.64705,5.27061 -4.66365,10.23308 -4.48134,11.02771 0.18221,0.79465 7.40477,9.15538 16.04989,18.57939 8.64517,9.42404 16.81604,19.2989 18.15754,21.94416 2.84947,5.61884 3.11376,11.56846 0.7637,17.19231 -2.07389,4.96291 -37.27598,40.74013 -42.99771,43.70001 -4.78418,2.47506 -13.49893,2.74096 -18.50652,0.5647 -1.91856,-0.8337 -11.5372,-8.87942 -21.37478,-17.87928 -9.83758,-9 -18.66893,-16.36578 -19.62519,-16.36852 -0.95631,0 -6.49783,2.21869 -12.31453,4.93659 -5.8167,2.71776 -14.43571,6.21312 -19.15338,7.76708 -6.52057,2.14805 -8.70377,3.36754 -9.10378,5.08469 -0.28942,1.2424 -1.24894,13.12101 -2.13227,26.39666 -1.94279,29.2001 -3.05897,32.3652 -13.22813,37.5141 -2.94872,1.4931 -7.82832,1.7504 -32.52091,1.7143 -21.85386,-0.031 -29.85736,-0.4022 -32.30373,-1.4939 z m 42.81919,-129.6491 c 26.207,-2.74629 48.10276,-13.19709 66.74398,-31.85665 14.20777,-14.22178 23.37533,-30.17943 28.89545,-50.29725 3.46062,-12.61205 3.44019,-40.46136 -0.0392,-53.22737 -10.55843,-38.7411 -38.29442,-67.26482 -76.62989,-78.8062 -8.93255,-2.68924 -11.35799,-2.94424 -28.72681,-3.02008 -16.63619,-0.0726 -20.10438,0.2266 -28.1848,2.43226 -40.34603,11.01297 -71.2032,43.42799 -79.63493,83.65544 -7.57546,36.14203 3.50108,73.03189 29.89061,99.54924 13.81736,13.88429 31.74546,24.0717 51.16848,29.07584 5.53851,1.42694 13.3983,2.52672 24.59257,3.44112 0.89434,0.0732 6.2603,-0.35281 11.92434,-0.94635 z m -26.88209,-45.44231 c -27.64144,-7.49567 -46.98624,-31.01737 -48.69906,-59.214 -1.19758,-19.71476 5.14752,-36.39492 19.14912,-50.33959 25.49906,-25.39538 66.21579,-25.63338 91.39179,-0.53422 20.73631,20.67305 25.71182,50.07515 12.84125,75.88362 -10.96241,21.98211 -31.15758,34.95439 -55.92745,35.92479 -8.43264,0.33036 -12.6034,-0.0524 -18.75565,-1.7206 z m 30.92454,-27.33257 c 7.63459,-2.85617 16.74103,-11.31949 20.57099,-19.11821 4.69799,-11.80194 4.343,-25.37479 -0.68578,-34.69703 -7.11835,-13.12746 -17.68025,-19.77945 -32.59988,-20.53171 -11.98508,-0.60426 -19.15876,1.93408 -27.81085,9.8407 -10.96977,10.02461 -15.33458,23.96086 -11.8113,37.71195 3.04957,11.90231 9.51041,19.98401 20.37799,25.49043 10.13849,5.13697 20.57465,5.56271 31.95883,1.30387 z"
       style="fill:#394050;stroke-width:0.91735023;fill-opacity:1"
       sodipodi:nodetypes="csssssssssssssssssssscsssssssssssssssssssscssssssssssssssssssscsscsscsssssscsssssscccssssssssscccssssssssccsssss" />
  </g>
</svg>
