<?xml version="1.0" encoding="UTF-8" standalone="no"?>
<!-- Generator: Adobe Illustrator 18.1.1, SVG Export Plug-In . SVG Version: 6.00 Build 0)  -->

<svg
   xmlns:dc="http://purl.org/dc/elements/1.1/"
   xmlns:cc="http://creativecommons.org/ns#"
   xmlns:rdf="http://www.w3.org/1999/02/22-rdf-syntax-ns#"
   xmlns:svg="http://www.w3.org/2000/svg"
   xmlns="http://www.w3.org/2000/svg"
   xmlns:sodipodi="http://sodipodi.sourceforge.net/DTD/sodipodi-0.dtd"
   xmlns:inkscape="http://www.inkscape.org/namespaces/inkscape"
   version="1.1"
   id="Capa_1"
   x="0px"
   y="0px"
   viewBox="0 0 128 128"
   xml:space="preserve"
   inkscape:version="0.92.1 r"
   sodipodi:docname="tumunuSec.svg"
   width="128"
   height="128"><metadata
     id="metadata73"><rdf:RDF><cc:Work
         rdf:about=""><dc:format>image/svg+xml</dc:format><dc:type
           rdf:resource="http://purl.org/dc/dcmitype/StillImage" /><dc:title /></cc:Work></rdf:RDF></metadata><defs
     id="defs71" /><sodipodi:namedview
     pagecolor="#ffffff"
     bordercolor="#666666"
     borderopacity="1"
     objecttolerance="10"
     gridtolerance="10"
     guidetolerance="10"
     inkscape:pageopacity="0"
     inkscape:pageshadow="2"
     inkscape:window-width="1920"
     inkscape:window-height="938"
     id="namedview69"
     showgrid="false"
     inkscape:zoom="3.0957075"
     inkscape:cx="-35.557197"
     inkscape:cy="62.518176"
     inkscape:window-x="0"
     inkscape:window-y="0"
     inkscape:window-maximized="1"
     inkscape:current-layer="Capa_1" /><g
     id="g39"
     transform="translate(0,101.047)" /><g
     id="g41"
     transform="translate(0,101.047)" /><g
     id="g43"
     transform="translate(0,101.047)" /><g
     id="g45"
     transform="translate(0,101.047)" /><g
     id="g47"
     transform="translate(0,101.047)" /><g
     id="g49"
     transform="translate(0,101.047)" /><g
     id="g51"
     transform="translate(0,101.047)" /><g
     id="g53"
     transform="translate(0,101.047)" /><g
     id="g55"
     transform="translate(0,101.047)" /><g
     id="g57"
     transform="translate(0,101.047)" /><g
     id="g59"
     transform="translate(0,101.047)" /><g
     id="g61"
     transform="translate(0,101.047)" /><g
     id="g63"
     transform="translate(0,101.047)" /><g
     id="g65"
     transform="translate(0,101.047)" /><g
     id="g67"
     transform="translate(0,101.047)" /><g
     id="g4650"><path
       style="fill:#394050;fill-opacity:1;stroke-width:1.60123098"
       d="m 10.341062,91.280874 h 2.686866 c 0.193749,0 0.347467,-0.156921 0.347467,-0.355474 0.0064,-2.153655 1.710115,-3.910206 3.806126,-3.913408 0.193749,0 0.347467,-0.156921 0.347467,-0.355474 V 83.895996 C 17.527387,83.699045 17.373669,83.538922 17.17992,83.538922 13.221677,83.538922 10,86.855071 10,90.9254 c 0,0.198553 0.150516,0.355474 0.341062,0.355474 z"
       id="path5"
       inkscape:connector-curvature="0" /><path
       style="fill:#394050;fill-opacity:1;stroke-width:1.60123098"
       d="m 10.341062,99.050046 h 2.686866 c 0.193749,0 0.347467,-0.15692 0.347467,-0.353872 v -5.652345 c 0,-0.193749 -0.153718,-0.355473 -0.347467,-0.355473 H 10.341062 C 10.150516,92.688356 10,92.848479 10,93.043829 v 5.652345 c 0,0.196952 0.150516,0.353872 0.341062,0.353872 z"
       id="path7"
       inkscape:connector-curvature="0" /><path
       style="fill:#394050;fill-opacity:1;stroke-width:1.60123098"
       d="m 10.341062,106.42372 h 2.686866 c 0.193749,0 0.347467,-0.15532 0.347467,-0.35388 v -5.65074 c 0,-0.19375 -0.153718,-0.35708 -0.347467,-0.35708 H 10.341062 C 10.150516,100.06202 10,100.22535 10,100.4191 v 5.65074 c 0,0.19856 0.150516,0.35388 0.341062,0.35388 z"
       id="path9"
       inkscape:connector-curvature="0" /><path
       style="fill:#394050;fill-opacity:1;stroke-width:1.60123098"
       d="m 10.341062,113.9527 h 2.686866 c 0.193749,0 0.347467,-0.15371 0.347467,-0.35387 v -5.64594 c 0,-0.19055 -0.153718,-0.35387 -0.347467,-0.35387 H 10.341062 C 10.150516,107.59902 10,107.76234 10,107.95289 v 5.64594 c 0,0.20016 0.150516,0.35387 0.341062,0.35387 z"
       id="path11"
       inkscape:connector-curvature="0" /><path
       style="fill:#394050;fill-opacity:1;stroke-width:1.60123098"
       d="m 48.13812,99.050046 c 0.190546,0 0.341062,-0.15692 0.341062,-0.353872 v -0.768591 l -1.213733,1.120862 h 0.872671 z"
       id="path13"
       inkscape:connector-curvature="0" /><path
       style="fill:#394050;fill-opacity:1;stroke-width:1.60123098"
       d="M 48.13812,100.06202 H 46.681 l -1.575612,1.64127 v 4.36655 c 0,0.19856 0.156921,0.35388 0.344265,0.35388 h 2.690068 c 0.190547,0 0.341062,-0.15532 0.341062,-0.35388 v -5.65074 c -0.0016,-0.19375 -0.150515,-0.35708 -0.342663,-0.35708 z"
       id="path15"
       inkscape:connector-curvature="0" /><path
       style="fill:#394050;fill-opacity:1;stroke-width:1.60123098"
       d="m 48.134917,107.59902 h -2.68046 c -0.193749,0 -0.347467,0.16332 -0.347467,0.35387 v 5.64594 c 0,0.20016 0.153718,0.35387 0.347467,0.35387 h 2.68046 c 0.190547,0 0.344265,-0.15371 0.344265,-0.35387 v -5.64594 c 0,-0.19055 -0.152117,-0.35387 -0.344265,-0.35387 z"
       id="path17"
       inkscape:connector-curvature="0" /><path
       style="fill:#394050;fill-opacity:1;stroke-width:1.60123098"
       d="m 39.160018,119.55381 h -5.495425 c -0.187344,0 -0.347467,0.16012 -0.347467,0.35387 v 2.76212 c 0,0.20016 0.160123,0.35708 0.347467,0.35708 h 5.495425 c 0.193749,0 0.347467,-0.15692 0.347467,-0.35708 v -2.76212 c 0,-0.19375 -0.153718,-0.35387 -0.347467,-0.35387 z"
       id="path19"
       inkscape:connector-curvature="0" /><path
       style="fill:#394050;fill-opacity:1;stroke-width:1.60123098"
       d="m 31.9833,119.55381 h -5.495424 c -0.187344,0 -0.344265,0.16012 -0.344265,0.35387 v 2.76212 c 0,0.20016 0.156921,0.35708 0.344265,0.35708 H 31.9833 c 0.193749,0 0.347468,-0.15692 0.347468,-0.35708 v -2.76212 c -0.0016,-0.19375 -0.153719,-0.35387 -0.347468,-0.35387 z"
       id="path21"
       inkscape:connector-curvature="0" /><path
       style="fill:#394050;fill-opacity:1;stroke-width:1.60123098"
       d="m 24.657669,119.55381 h -5.493824 c -0.187344,0 -0.344265,0.16012 -0.344265,0.35387 v 2.76212 c 0,0.20016 0.156921,0.35708 0.344265,0.35708 h 5.495425 c 0.196951,0 0.347467,-0.15692 0.347467,-0.35708 v -2.76212 c -0.0016,-0.19375 -0.152117,-0.35387 -0.349068,-0.35387 z"
       id="path23"
       inkscape:connector-curvature="0" /><path
       style="fill:#394050;fill-opacity:1;stroke-width:1.60123098"
       d="m 33.664593,87.011992 h 5.495425 c 0.193749,0 0.347467,-0.156921 0.347467,-0.355474 v -2.760522 c 0,-0.196951 -0.153718,-0.357074 -0.347467,-0.357074 h -5.495425 c -0.187344,0 -0.347467,0.160123 -0.347467,0.357074 v 2.762124 c 0,0.196951 0.160123,0.353872 0.347467,0.353872 z"
       id="path25"
       inkscape:connector-curvature="0" /><path
       style="fill:#394050;fill-opacity:1;stroke-width:1.60123098"
       d="M 26.487876,87.011992 H 31.9833 c 0.193749,0 0.347468,-0.156921 0.347468,-0.355474 v -2.760522 c -0.0016,-0.196951 -0.153719,-0.357074 -0.347468,-0.357074 h -5.495424 c -0.187344,0 -0.344265,0.160123 -0.344265,0.357074 v 2.762124 c 0,0.196951 0.156921,0.353872 0.344265,0.353872 z"
       id="path27"
       inkscape:connector-curvature="0" /><path
       style="fill:#394050;fill-opacity:1;stroke-width:1.60123098"
       d="m 19.163845,87.011992 h 5.495425 c 0.196951,0 0.347467,-0.156921 0.347467,-0.355474 v -2.760522 c -0.0016,-0.196951 -0.152117,-0.357074 -0.349068,-0.357074 h -5.493824 c -0.188945,0 -0.344265,0.160123 -0.344265,0.357074 v 2.762124 c 0,0.196951 0.15532,0.353872 0.344265,0.353872 z"
       id="path29"
       inkscape:connector-curvature="0" /><path
       style="fill:#394050;fill-opacity:1;stroke-width:1.60123098"
       d="m 17.17992,119.46734 c -2.096012,-0.01 -3.799721,-1.75815 -3.806126,-3.9118 0,-0.19375 -0.153718,-0.35067 -0.347467,-0.35067 H 10.341062 C 10.150516,115.20326 10,115.36019 10,115.55393 c 0,4.07514 3.221677,7.38328 7.17992,7.38328 0.193749,0 0.347467,-0.15692 0.347467,-0.35707 v -2.75732 c 0,-0.19375 -0.153718,-0.35548 -0.347467,-0.35548 z"
       id="path31"
       inkscape:connector-curvature="0" /><path
       style="fill:#394050;fill-opacity:1;stroke-width:1.60123098"
       d="m 48.058058,115.20326 h -2.68046 c -0.193749,0 -0.347467,0.15693 -0.347467,0.35067 -0.0064,2.15526 -1.713318,3.90381 -3.809329,3.91181 -0.187344,0 -0.344265,0.16333 -0.344265,0.35708 v 2.75892 c 0,0.20015 0.156921,0.35707 0.344265,0.35707 3.963047,0 7.17992,-3.30814 7.17992,-7.38327 0,-0.19535 -0.148915,-0.35228 -0.342664,-0.35228 z"
       id="path33"
       inkscape:connector-curvature="0" /><path
       style="fill:#394050;fill-opacity:1;stroke-width:1.60123098"
       d="m 41.220802,87.011992 c 2.079999,0.0032 2.376227,0.301031 3.449052,2.28976 l 2.555564,-2.401846 c -0.899892,-2.595596 -3.03113,-3.360984 -6.004616,-3.360984 -0.187344,0 -0.344265,0.160123 -0.344265,0.357074 v 2.762124 c 0,0.196951 0.156921,0.353872 0.344265,0.353872 z"
       id="path35"
       inkscape:connector-curvature="0" /><path
       style="fill:#394050;fill-opacity:1;stroke-width:1.60123098"
       d="m 52.754469,90.555516 -2.933455,-2.933455 c -0.538014,-0.538014 -1.413887,-0.538014 -1.951901,0 l -17.581516,17.583119 -8.36323,-8.422477 c -0.544418,-0.539615 -1.417089,-0.539615 -1.958305,0 l -2.928652,2.928652 c -0.541216,0.539615 -0.541216,1.417085 0,1.955105 l 9.301551,9.3704 0.03202,0.0432 2.023956,2.02716 0.472363,0.47237 v 0 l 0.433933,0.43233 c 0.538014,0.53801 1.413887,0.53801 1.955104,0 L 52.754469,92.510619 c 0.538014,-0.538014 0.538014,-1.418691 0,-1.955103 z"
       id="path37"
       inkscape:connector-curvature="0" /><path
       style="fill:#394050;fill-opacity:1;stroke-width:1.60123098"
       d="m 10.341062,50.953651 h 2.686866 c 0.193749,0 0.347467,-0.156921 0.347467,-0.355474 0.0064,-2.153655 1.710115,-3.910206 3.806126,-3.913408 0.193749,0 0.347467,-0.156921 0.347467,-0.355474 v -2.760522 c -0.0016,-0.196951 -0.155319,-0.357074 -0.349068,-0.357074 -3.958243,0 -7.17992,3.316149 -7.17992,7.386478 0,0.198553 0.150516,0.355474 0.341062,0.355474 z"
       id="path5-6"
       inkscape:connector-curvature="0" /><path
       style="fill:#394050;fill-opacity:1;stroke-width:1.60123098"
       d="m 10.341062,58.722823 h 2.686866 c 0.193749,0 0.347467,-0.15692 0.347467,-0.353872 v -5.652345 c 0,-0.193749 -0.153718,-0.355473 -0.347467,-0.355473 H 10.341062 C 10.150516,52.361133 10,52.521256 10,52.716606 v 5.652345 c 0,0.196952 0.150516,0.353872 0.341062,0.353872 z"
       id="path7-7"
       inkscape:connector-curvature="0" /><path
       style="fill:#394050;fill-opacity:1;stroke-width:1.60123098"
       d="m 10.341062,66.096492 h 2.686866 c 0.193749,0 0.347467,-0.155319 0.347467,-0.353872 v -5.650744 c 0,-0.193749 -0.153718,-0.357075 -0.347467,-0.357075 H 10.341062 C 10.150516,59.734801 10,59.898127 10,60.091876 v 5.650744 c 0,0.198553 0.150516,0.353872 0.341062,0.353872 z"
       id="path9-5"
       inkscape:connector-curvature="0" /><path
       style="fill:#394050;fill-opacity:1;stroke-width:1.60123098"
       d="m 10.341062,73.62548 h 2.686866 c 0.193749,0 0.347467,-0.153718 0.347467,-0.353872 v -5.64594 c 0,-0.190547 -0.153718,-0.353872 -0.347467,-0.353872 H 10.341062 C 10.150516,67.271796 10,67.435121 10,67.625668 v 5.64594 c 0,0.200154 0.150516,0.353872 0.341062,0.353872 z"
       id="path11-3"
       inkscape:connector-curvature="0" /><path
       style="fill:#394050;fill-opacity:1;stroke-width:1.60123098"
       d="m 48.13812,58.722823 c 0.190546,0 0.341062,-0.15692 0.341062,-0.353872 V 57.60036 l -1.213733,1.120862 h 0.872671 z"
       id="path13-5"
       inkscape:connector-curvature="0" /><path
       style="fill:#394050;fill-opacity:1;stroke-width:1.60123098"
       d="M 48.13812,59.734801 H 46.681 l -1.575612,1.641262 v 4.366557 c 0,0.198553 0.156921,0.353872 0.344265,0.353872 h 2.690068 c 0.190547,0 0.341062,-0.155319 0.341062,-0.353872 v -5.650744 c -0.0016,-0.193749 -0.150515,-0.357075 -0.342663,-0.357075 z"
       id="path15-6"
       inkscape:connector-curvature="0" /><path
       style="fill:#394050;fill-opacity:1;stroke-width:1.60123098"
       d="m 48.134917,67.271796 h -2.68046 c -0.193749,0 -0.347467,0.163325 -0.347467,0.353872 v 5.64594 c 0,0.200154 0.153718,0.353872 0.347467,0.353872 h 2.68046 c 0.190547,0 0.344265,-0.153718 0.344265,-0.353872 v -5.64594 c 0,-0.190547 -0.152117,-0.353872 -0.344265,-0.353872 z"
       id="path17-2"
       inkscape:connector-curvature="0" /><path
       style="fill:#394050;fill-opacity:1;stroke-width:1.60123098"
       d="m 39.160018,79.226586 h -5.495425 c -0.187344,0 -0.347467,0.160123 -0.347467,0.353872 v 2.762124 c 0,0.200154 0.160123,0.357074 0.347467,0.357074 h 5.495425 c 0.193749,0 0.347467,-0.15692 0.347467,-0.357074 v -2.762124 c 0,-0.193749 -0.153718,-0.353872 -0.347467,-0.353872 z"
       id="path19-9"
       inkscape:connector-curvature="0" /><path
       style="fill:#394050;fill-opacity:1;stroke-width:1.60123098"
       d="m 31.9833,79.226586 h -5.495424 c -0.187344,0 -0.344265,0.160123 -0.344265,0.353872 v 2.762124 c 0,0.200154 0.156921,0.357074 0.344265,0.357074 H 31.9833 c 0.193749,0 0.347468,-0.15692 0.347468,-0.357074 v -2.762124 c -0.0016,-0.193749 -0.153719,-0.353872 -0.347468,-0.353872 z"
       id="path21-1"
       inkscape:connector-curvature="0" /><path
       style="fill:#394050;fill-opacity:1;stroke-width:1.60123098"
       d="m 24.657669,79.226586 h -5.493824 c -0.187344,0 -0.344265,0.160123 -0.344265,0.353872 v 2.762124 c 0,0.200154 0.156921,0.357074 0.344265,0.357074 h 5.495425 c 0.196951,0 0.347467,-0.15692 0.347467,-0.357074 v -2.762124 c -0.0016,-0.193749 -0.152117,-0.353872 -0.349068,-0.353872 z"
       id="path23-2"
       inkscape:connector-curvature="0" /><path
       style="fill:#394050;fill-opacity:1;stroke-width:1.60123098"
       d="m 33.664593,46.684769 h 5.495425 c 0.193749,0 0.347467,-0.156921 0.347467,-0.355474 v -2.760522 c 0,-0.196951 -0.153718,-0.357074 -0.347467,-0.357074 h -5.495425 c -0.187344,0 -0.347467,0.160123 -0.347467,0.357074 v 2.762124 c 0,0.196951 0.160123,0.353872 0.347467,0.353872 z"
       id="path25-7"
       inkscape:connector-curvature="0" /><path
       style="fill:#394050;fill-opacity:1;stroke-width:1.60123098"
       d="M 26.487876,46.684769 H 31.9833 c 0.193749,0 0.347468,-0.156921 0.347468,-0.355474 v -2.760522 c -0.0016,-0.196951 -0.153719,-0.357074 -0.347468,-0.357074 h -5.495424 c -0.187344,0 -0.344265,0.160123 -0.344265,0.357074 v 2.762124 c 0,0.196951 0.156921,0.353872 0.344265,0.353872 z"
       id="path27-0"
       inkscape:connector-curvature="0" /><path
       style="fill:#394050;fill-opacity:1;stroke-width:1.60123098"
       d="m 19.163845,46.684769 h 5.495425 c 0.196951,0 0.347467,-0.156921 0.347467,-0.355474 v -2.760522 c -0.0016,-0.196951 -0.152117,-0.357074 -0.349068,-0.357074 h -5.493824 c -0.188945,0 -0.344265,0.160123 -0.344265,0.357074 v 2.762124 c 0,0.196951 0.15532,0.353872 0.344265,0.353872 z"
       id="path29-9"
       inkscape:connector-curvature="0" /><path
       style="fill:#394050;fill-opacity:1;stroke-width:1.60123098"
       d="m 17.17992,79.14012 c -2.096012,-0.0096 -3.799721,-1.758152 -3.806126,-3.911807 0,-0.193749 -0.153718,-0.35067 -0.347467,-0.35067 H 10.341062 C 10.150516,74.876042 10,75.032962 10,75.226711 c 0,4.075133 3.221677,7.383276 7.17992,7.383276 0.193749,0 0.347467,-0.15692 0.347467,-0.357074 v -2.75732 c 0,-0.193749 -0.153718,-0.355473 -0.347467,-0.355473 z"
       id="path31-3"
       inkscape:connector-curvature="0" /><path
       style="fill:#394050;fill-opacity:1;stroke-width:1.60123098"
       d="m 48.058058,74.876042 h -2.68046 c -0.193749,0 -0.347467,0.15692 -0.347467,0.350669 -0.0064,2.155257 -1.713318,3.903802 -3.809329,3.911808 -0.187344,0 -0.344265,0.163325 -0.344265,0.357074 v 2.758921 c 0,0.200154 0.156921,0.357075 0.344265,0.357075 3.963047,0 7.17992,-3.308144 7.17992,-7.383276 0,-0.195351 -0.148915,-0.352271 -0.342664,-0.352271 z"
       id="path33-6"
       inkscape:connector-curvature="0" /><path
       style="fill:#394050;fill-opacity:1;stroke-width:1.60123098"
       d="m 41.220802,46.684769 c 2.079999,0.0032 2.376227,0.301031 3.449052,2.28976 l 2.555564,-2.401846 c -0.899892,-2.595596 -3.03113,-3.360984 -6.004616,-3.360984 -0.187344,0 -0.344265,0.160123 -0.344265,0.357074 v 2.762124 c 0,0.196951 0.156921,0.353872 0.344265,0.353872 z"
       id="path35-0"
       inkscape:connector-curvature="0" /><path
       style="fill:#394050;fill-opacity:1;stroke-width:1.60123098"
       d="m 52.754469,50.228293 -2.933455,-2.933455 c -0.538014,-0.538014 -1.413887,-0.538014 -1.951901,0 L 30.287597,64.877955 21.924367,56.45548 c -0.544418,-0.539615 -1.417089,-0.539615 -1.958305,0 l -2.928652,2.928652 c -0.541216,0.539615 -0.541216,1.417089 0,1.955103 l 9.301551,9.370404 0.03202,0.04323 2.023956,2.027158 0.472363,0.472364 v 0 l 0.433933,0.432332 c 0.538014,0.538014 1.413887,0.538014 1.955104,0 l 21.498127,-21.50133 c 0.538014,-0.538014 0.538014,-1.418691 0,-1.955103 z"
       id="path37-6"
       inkscape:connector-curvature="0" /><path
       style="fill:#394050;fill-opacity:1;stroke-width:1.60123098"
       d="m 10.341062,10.470131 h 2.686866 c 0.193749,0 0.347467,-0.156921 0.347467,-0.355473 0.0064,-2.1536561 1.710115,-3.9102065 3.806126,-3.913409 0.193749,0 0.347467,-0.1569206 0.347467,-0.3554733 V 3.0852535 C 17.527387,2.8883021 17.373669,2.728179 17.17992,2.728179 13.221677,2.728179 10,6.0443284 10,10.114658 c 0,0.198552 0.150516,0.355473 0.341062,0.355473 z"
       id="path5-6-6"
       inkscape:connector-curvature="0" /><path
       style="fill:#394050;fill-opacity:1;stroke-width:1.60123098"
       d="m 10.341062,18.239304 h 2.686866 c 0.193749,0 0.347467,-0.156921 0.347467,-0.353872 v -5.652346 c 0,-0.193749 -0.153718,-0.355473 -0.347467,-0.355473 H 10.341062 C 10.150516,11.877613 10,12.037736 10,12.233086 v 5.652346 c 0,0.196951 0.150516,0.353872 0.341062,0.353872 z"
       id="path7-7-1"
       inkscape:connector-curvature="0" /><path
       style="fill:#394050;fill-opacity:1;stroke-width:1.60123098"
       d="m 10.341062,25.612972 h 2.686866 c 0.193749,0 0.347467,-0.155319 0.347467,-0.353872 v -5.650744 c 0,-0.193749 -0.153718,-0.357074 -0.347467,-0.357074 H 10.341062 C 10.150516,19.251282 10,19.414607 10,19.608356 V 25.2591 c 0,0.198553 0.150516,0.353872 0.341062,0.353872 z"
       id="path9-5-8"
       inkscape:connector-curvature="0" /><path
       style="fill:#394050;fill-opacity:1;stroke-width:1.60123098"
       d="m 10.341062,33.141961 h 2.686866 c 0.193749,0 0.347467,-0.153719 0.347467,-0.353872 v -5.645941 c 0,-0.190546 -0.153718,-0.353872 -0.347467,-0.353872 H 10.341062 C 10.150516,26.788276 10,26.951602 10,27.142148 v 5.645941 c 0,0.200153 0.150516,0.353872 0.341062,0.353872 z"
       id="path11-3-7"
       inkscape:connector-curvature="0" /><path
       style="fill:#394050;fill-opacity:1;stroke-width:1.60123098"
       d="m 48.13812,18.239304 c 0.190546,0 0.341062,-0.156921 0.341062,-0.353872 v -0.768591 l -1.213733,1.120861 h 0.872671 z"
       id="path13-5-9"
       inkscape:connector-curvature="0" /><path
       style="fill:#394050;fill-opacity:1;stroke-width:1.60123098"
       d="M 48.13812,19.251282 H 46.681 l -1.575612,1.641261 V 25.2591 c 0,0.198553 0.156921,0.353872 0.344265,0.353872 h 2.690068 c 0.190547,0 0.341062,-0.155319 0.341062,-0.353872 v -5.650744 c -0.0016,-0.193749 -0.150515,-0.357074 -0.342663,-0.357074 z"
       id="path15-6-2"
       inkscape:connector-curvature="0" /><path
       style="fill:#394050;fill-opacity:1;stroke-width:1.60123098"
       d="m 48.134917,26.788276 h -2.68046 c -0.193749,0 -0.347467,0.163326 -0.347467,0.353872 v 5.645941 c 0,0.200153 0.153718,0.353872 0.347467,0.353872 h 2.68046 c 0.190547,0 0.344265,-0.153719 0.344265,-0.353872 v -5.645941 c 0,-0.190546 -0.152117,-0.353872 -0.344265,-0.353872 z"
       id="path17-2-0"
       inkscape:connector-curvature="0" /><path
       style="fill:#394050;fill-opacity:1;stroke-width:1.60123098"
       d="m 39.160018,38.743067 h -5.495425 c -0.187344,0 -0.347467,0.160123 -0.347467,0.353872 v 2.762123 c 0,0.200154 0.160123,0.357075 0.347467,0.357075 h 5.495425 c 0.193749,0 0.347467,-0.156921 0.347467,-0.357075 v -2.762123 c 0,-0.193749 -0.153718,-0.353872 -0.347467,-0.353872 z"
       id="path19-9-2"
       inkscape:connector-curvature="0" /><path
       style="fill:#394050;fill-opacity:1;stroke-width:1.60123098"
       d="m 31.9833,38.743067 h -5.495424 c -0.187344,0 -0.344265,0.160123 -0.344265,0.353872 v 2.762123 c 0,0.200154 0.156921,0.357075 0.344265,0.357075 H 31.9833 c 0.193749,0 0.347468,-0.156921 0.347468,-0.357075 V 39.096939 C 32.329166,38.90319 32.177049,38.743067 31.9833,38.743067 Z"
       id="path21-1-3"
       inkscape:connector-curvature="0" /><path
       style="fill:#394050;fill-opacity:1;stroke-width:1.60123098"
       d="m 24.657669,38.743067 h -5.493824 c -0.187344,0 -0.344265,0.160123 -0.344265,0.353872 v 2.762123 c 0,0.200154 0.156921,0.357075 0.344265,0.357075 h 5.495425 c 0.196951,0 0.347467,-0.156921 0.347467,-0.357075 v -2.762123 c -0.0016,-0.193749 -0.152117,-0.353872 -0.349068,-0.353872 z"
       id="path23-2-7"
       inkscape:connector-curvature="0" /><path
       style="fill:#394050;fill-opacity:1;stroke-width:1.60123098"
       d="m 33.664593,6.201249 h 5.495425 c 0.193749,0 0.347467,-0.1569206 0.347467,-0.3554733 V 3.0852535 c 0,-0.1969514 -0.153718,-0.3570745 -0.347467,-0.3570745 h -5.495425 c -0.187344,0 -0.347467,0.1601231 -0.347467,0.3570745 V 5.847377 c 0,0.1969514 0.160123,0.353872 0.347467,0.353872 z"
       id="path25-7-5"
       inkscape:connector-curvature="0" /><path
       style="fill:#394050;fill-opacity:1;stroke-width:1.60123098"
       d="M 26.487876,6.201249 H 31.9833 c 0.193749,0 0.347468,-0.1569206 0.347468,-0.3554733 V 3.0852535 C 32.329166,2.8883021 32.177049,2.728179 31.9833,2.728179 h -5.495424 c -0.187344,0 -0.344265,0.1601231 -0.344265,0.3570745 V 5.847377 c 0,0.1969514 0.156921,0.353872 0.344265,0.353872 z"
       id="path27-0-9"
       inkscape:connector-curvature="0" /><path
       style="fill:#394050;fill-opacity:1;stroke-width:1.60123098"
       d="m 19.163845,6.201249 h 5.495425 c 0.196951,0 0.347467,-0.1569206 0.347467,-0.3554733 V 3.0852535 C 25.005136,2.8883021 24.85462,2.728179 24.657669,2.728179 h -5.493824 c -0.188945,0 -0.344265,0.1601231 -0.344265,0.3570745 V 5.847377 c 0,0.1969514 0.15532,0.353872 0.344265,0.353872 z"
       id="path29-9-2"
       inkscape:connector-curvature="0" /><path
       style="fill:#394050;fill-opacity:1;stroke-width:1.60123098"
       d="m 17.17992,38.6566 c -2.096012,-0.0096 -3.799721,-1.758151 -3.806126,-3.911807 0,-0.193749 -0.153718,-0.35067 -0.347467,-0.35067 H 10.341062 C 10.150516,34.392522 10,34.549443 10,34.743192 c 0,4.075132 3.221677,7.383276 7.17992,7.383276 0.193749,0 0.347467,-0.156921 0.347467,-0.357075 v -2.75732 c 0,-0.193749 -0.153718,-0.355473 -0.347467,-0.355473 z"
       id="path31-3-2"
       inkscape:connector-curvature="0" /><path
       style="fill:#394050;fill-opacity:1;stroke-width:1.60123098"
       d="m 48.058058,34.392522 h -2.68046 c -0.193749,0 -0.347467,0.156921 -0.347467,0.35067 -0.0064,2.155257 -1.713318,3.903801 -3.809329,3.911807 -0.187344,0 -0.344265,0.163325 -0.344265,0.357074 v 2.758921 c 0,0.200154 0.156921,0.357075 0.344265,0.357075 3.963047,0 7.17992,-3.308143 7.17992,-7.383276 0,-0.19535 -0.148915,-0.352271 -0.342664,-0.352271 z"
       id="path33-6-8"
       inkscape:connector-curvature="0" /><path
       style="fill:#394050;fill-opacity:1;stroke-width:1.60123098"
       d="m 41.220802,6.201249 c 2.079999,0.0032 2.376227,0.3010315 3.449052,2.2897604 L 47.225418,6.0891629 C 46.325526,3.4935674 44.194288,2.728179 41.220802,2.728179 c -0.187344,0 -0.344265,0.1601231 -0.344265,0.3570745 V 5.847377 c 0,0.1969514 0.156921,0.353872 0.344265,0.353872 z"
       id="path35-0-9"
       inkscape:connector-curvature="0" /><path
       style="fill:#394050;fill-opacity:1;stroke-width:1.60123098"
       d="M 52.754469,9.7447732 49.821014,6.811318 c -0.538014,-0.5380136 -1.413887,-0.5380136 -1.951901,0 l -17.581516,17.583118 -8.36323,-8.422475 c -0.544418,-0.539615 -1.417089,-0.539615 -1.958305,0 l -2.928652,2.928651 c -0.541216,0.539615 -0.541216,1.41709 0,1.955103 l 9.301551,9.370404 0.03202,0.04323 2.023956,2.027159 0.472363,0.472363 v 0 l 0.433933,0.432332 c 0.538014,0.538014 1.413887,0.538014 1.955104,0 l 21.498127,-21.50133 c 0.538014,-0.538013 0.538014,-1.41869 0,-1.9551028 z"
       id="path37-6-7"
       inkscape:connector-curvature="0" /></g></svg>